<svg xmlns="http://www.w3.org/2000/svg" width="33" height="32" fill="none" viewBox="0 0 33 32">
  <path fill="#000" fill-rule="evenodd" d="M19.828.289a1 1 0 01.712.297l11.14 11.278a1 1 0 010 1.405L15.856 29.29H31.5a1 1 0 010 2H8.156a1 1 0 01-.711-.298l-5.305-5.37C.884 24.351.363 22.851.53 21.318c.165-1.495.971-2.901 2.14-4.084L19.117.586a1 1 0 01.711-.297zm-6.784 29l2.726-2.76-9.736-9.855-1.941 1.966c-.954.965-1.473 1.975-1.574 2.897-.097.885.176 1.8 1.043 2.678l5.012 5.074h4.47zM7.44 15.25l9.735 9.855 12.389-12.54-9.736-9.855L7.44 15.251z" clip-rule="evenodd"/>
</svg>
